<svg width="512" height="512" viewBox="0 0 512 512" fill="none" xmlns="http://www.w3.org/2000/svg">
<path d="M0 75C0 33.5786 33.5786 0 75 0H437C478.421 0 512 33.5786 512 75V437C512 478.421 478.421 512 437 512H75C33.5786 512 0 478.421 0 437V75Z" fill="#A4C6D9"/>
<circle cx="256" cy="256" r="172.5" stroke="#516777" stroke-width="35"/>
<path d="M169.152 303.872C161.515 303.872 155.84 302.187 152.128 298.816C148.459 295.403 146.496 290.048 146.24 282.752C146.197 281.728 146.475 280.917 147.072 280.32C147.712 279.68 148.544 279.36 149.568 279.36C150.592 279.36 151.403 279.659 152 280.256C152.597 280.853 152.939 281.664 153.024 282.688C153.195 288.064 154.475 291.819 156.864 293.952C159.253 296.085 163.349 297.152 169.152 297.152H187.584C193.643 297.152 197.845 295.979 200.192 293.632C202.581 291.243 203.776 287.061 203.776 281.088C203.776 275.029 202.581 270.827 200.192 268.48C197.845 266.091 193.643 264.896 187.584 264.896H170.048C162.539 264.896 157.035 263.147 153.536 259.648C150.037 256.149 148.288 250.667 148.288 243.2C148.288 235.733 150.016 230.251 153.472 226.752C156.971 223.253 162.453 221.504 169.92 221.504H187.84C195.008 221.504 200.32 223.104 203.776 226.304C207.275 229.504 209.152 234.539 209.408 241.408C209.493 242.432 209.216 243.264 208.576 243.904C207.979 244.501 207.147 244.8 206.08 244.8C205.099 244.8 204.309 244.501 203.712 243.904C203.115 243.307 202.773 242.496 202.688 241.472C202.517 236.565 201.323 233.131 199.104 231.168C196.885 229.205 193.131 228.224 187.84 228.224H169.92C164.331 228.224 160.448 229.333 158.272 231.552C156.096 233.728 155.008 237.611 155.008 243.2C155.008 248.789 156.096 252.693 158.272 254.912C160.491 257.088 164.416 258.176 170.048 258.176H187.584C195.52 258.176 201.323 260.032 204.992 263.744C208.661 267.413 210.496 273.195 210.496 281.088C210.496 288.981 208.661 294.763 204.992 298.432C201.323 302.059 195.52 303.872 187.584 303.872H169.152ZM257.678 304C248.419 304 241.657 301.867 237.39 297.6C233.123 293.333 230.99 286.571 230.99 277.312V248.192C230.99 238.848 233.102 232.064 237.326 227.84C241.593 223.616 248.334 221.504 257.55 221.504H273.038C280.889 221.504 286.734 223.147 290.574 226.432C294.414 229.675 296.526 234.901 296.91 242.112C297.038 243.264 296.803 244.139 296.206 244.736C295.651 245.333 294.819 245.632 293.71 245.632C291.577 245.632 290.403 244.501 290.19 242.24C289.891 236.949 288.441 233.301 285.838 231.296C283.235 229.248 278.969 228.224 273.038 228.224H257.55C252.643 228.224 248.739 228.864 245.838 230.144C242.937 231.381 240.846 233.472 239.566 236.416C238.329 239.317 237.71 243.243 237.71 248.192V277.312C237.71 282.261 238.35 286.187 239.63 289.088C240.91 291.989 243.001 294.08 245.902 295.36C248.803 296.64 252.729 297.28 257.678 297.28H273.038C278.969 297.28 283.235 296.277 285.838 294.272C288.441 292.224 289.891 288.555 290.19 283.264C290.403 281.003 291.577 279.872 293.71 279.872C294.819 279.872 295.651 280.192 296.206 280.832C296.803 281.429 297.038 282.283 296.91 283.392C296.526 290.603 294.414 295.851 290.574 299.136C286.734 302.379 280.889 304 273.038 304H257.678ZM364.815 304H315.215C312.911 304 311.759 302.869 311.759 300.608C311.759 295.744 312.42 291.563 313.743 288.064C315.066 284.565 316.986 281.472 319.503 278.784C322.063 276.053 325.156 273.493 328.783 271.104C332.452 268.715 336.591 266.197 341.199 263.552C345.423 261.12 348.986 258.965 351.887 257.088C354.788 255.168 356.986 253.163 358.479 251.072C360.015 248.939 360.783 246.315 360.783 243.2C360.783 237.611 359.695 233.728 357.519 231.552C355.343 229.333 351.439 228.224 345.807 228.224H332.111C327.162 228.224 323.556 229.077 321.295 230.784C319.076 232.491 317.775 235.477 317.391 239.744C317.263 240.853 316.922 241.685 316.367 242.24C315.812 242.795 315.002 243.072 313.935 243.072C312.826 243.072 311.972 242.773 311.375 242.176C310.778 241.536 310.522 240.661 310.607 239.552C311.119 233.365 313.124 228.821 316.623 225.92C320.122 222.976 325.284 221.504 332.111 221.504H345.807C353.274 221.504 358.756 223.253 362.255 226.752C365.754 230.251 367.503 235.733 367.503 243.2C367.503 247.595 366.458 251.307 364.367 254.336C362.319 257.323 359.546 259.989 356.047 262.336C352.591 264.64 348.751 266.987 344.527 269.376C339.108 272.491 334.564 275.307 330.895 277.824C327.226 280.299 324.367 283.029 322.319 286.016C320.314 288.96 319.098 292.715 318.671 297.28H364.815C367.076 297.28 368.207 298.389 368.207 300.608C368.207 302.869 367.076 304 364.815 304Z" fill="#516777"/>
</svg>
